<?xml version="1.0" encoding="utf-8"?>
<!-- Generator: Adobe Illustrator 16.0.0, SVG Export Plug-In . SVG Version: 6.00 Build 0)  -->
<!DOCTYPE svg PUBLIC "-//W3C//DTD SVG 1.1//EN" "http://www.w3.org/Graphics/SVG/1.1/DTD/svg11.dtd">
<svg version="1.1" id="Layer_1" xmlns="http://www.w3.org/2000/svg" xmlns:xlink="http://www.w3.org/1999/xlink" x="0px" y="0px"
	 width="219px" height="48.5px" viewBox="0 0 219 48.5" enable-background="new 0 0 219 48.5" xml:space="preserve">
<g>
	<path fill="#44B649" d="M5.107,46.359c-0.82,0-1.537-0.307-2.151-0.922s-0.922-1.332-0.922-2.15V6.406
		c0-0.819,0.308-1.537,0.922-2.151C3.57,3.639,4.287,3.333,5.107,3.333h18.44c2.458,0,4.61,0.922,6.454,2.766
		s2.766,3.995,2.766,6.454v6.146c0,2.459-0.922,4.61-2.766,6.454c1.844,1.435,2.766,3.38,2.766,5.839v6.146
		c0,2.459-0.922,4.611-2.766,6.455s-3.996,2.766-6.454,2.766H5.107z M8.18,21.773h15.367c0.819,0,1.537-0.308,2.151-0.923
		c0.615-0.614,0.922-1.331,0.922-2.151v-6.146c0-0.819-0.307-1.537-0.922-2.151s-1.332-0.922-2.151-0.922H8.18V21.773z M8.18,40.213
		h15.367c0.819,0,1.537-0.307,2.151-0.922s0.922-1.332,0.922-2.152v-6.146c0-0.818-0.307-1.535-0.922-2.15s-1.332-0.922-2.151-0.922
		H8.18V40.213z"/>
	<path fill="#44B649" d="M48.134,46.359c-2.458,0-4.61-0.922-6.454-2.766c-1.844-1.844-2.766-3.996-2.766-6.455
		c0-2.457,0.922-4.609,2.766-6.453c1.844-1.844,3.996-2.766,6.454-2.766h15.367v-3.074c0-0.819-0.307-1.537-0.922-2.151
		c-0.615-0.615-1.332-0.922-2.151-0.922H48.134c-0.819,0-1.537-0.308-2.151-0.923c-0.615-0.614-0.922-1.331-0.922-2.151
		c0-0.819,0.307-1.536,0.922-2.151c0.615-0.614,1.332-0.922,2.151-0.922h12.294c2.458,0,4.61,0.922,6.454,2.767
		c1.844,1.844,2.766,3.995,2.766,6.454v18.441c0,0.818-0.308,1.535-0.922,2.15c-0.615,0.615-1.333,0.922-2.151,0.922H48.134z
		 M63.501,34.066H48.134c-0.819,0-1.537,0.307-2.151,0.922s-0.922,1.332-0.922,2.15c0,0.82,0.307,1.537,0.922,2.152
		s1.332,0.922,2.151,0.922h15.367V34.066z"/>
	<path fill="#44B649" d="M85.015,46.359c-0.819,0-1.537-0.307-2.151-0.922s-0.922-1.332-0.922-2.15c0-0.82,0.307-1.537,0.922-2.152
		s1.332-0.922,2.151-0.922h3.074V9.479h-3.074c-0.819,0-1.537-0.308-2.151-0.922c-0.615-0.615-0.922-1.332-0.922-2.151
		s0.307-1.537,0.922-2.151c0.615-0.615,1.332-0.922,2.151-0.922h6.147c0.819,0,1.537,0.307,2.151,0.922
		c0.615,0.614,0.922,1.332,0.922,2.151v33.807h3.074c0.82,0,1.537,0.307,2.151,0.922c0.615,0.615,0.923,1.332,0.923,2.152
		c0,0.818-0.308,1.535-0.923,2.15c-0.614,0.615-1.331,0.922-2.151,0.922H85.015z"/>
	<path fill="#44B649" d="M121.896,46.359c-0.82,0-1.537-0.307-2.151-0.922c-0.615-0.615-0.922-1.332-0.922-2.15
		c0-0.82,0.307-1.537,0.922-2.152c0.614-0.615,1.331-0.922,2.151-0.922h3.073V9.479h-3.073c-0.82,0-1.537-0.308-2.151-0.922
		c-0.615-0.615-0.922-1.332-0.922-2.151s0.307-1.537,0.922-2.151c0.614-0.615,1.331-0.922,2.151-0.922h6.146
		c0.819,0,1.537,0.307,2.151,0.922c0.615,0.614,0.922,1.332,0.922,2.151v33.807h3.073c0.819,0,1.537,0.307,2.151,0.922
		c0.615,0.615,0.923,1.332,0.923,2.152c0,0.818-0.308,1.535-0.923,2.15c-0.614,0.615-1.332,0.922-2.151,0.922H121.896z"/>
	<path fill="#44B649" d="M158.777,46.359c-2.459,0-4.61-0.922-6.454-2.766c-1.845-1.844-2.767-3.996-2.767-6.455V12.552
		c0-2.459,0.922-4.61,2.767-6.454c1.844-1.844,3.995-2.766,6.454-2.766h12.293c2.459,0,4.61,0.922,6.454,2.766
		c1.845,1.844,2.767,3.995,2.767,6.454v24.586c0,2.459-0.922,4.611-2.767,6.455c-1.844,1.844-3.995,2.766-6.454,2.766H158.777z
		 M155.704,29.148l18.44-16.596c0-0.819-0.308-1.537-0.923-2.151c-0.614-0.614-1.332-0.922-2.151-0.922h-12.293
		c-0.82,0-1.537,0.308-2.151,0.922c-0.615,0.614-0.922,1.332-0.922,2.151V29.148z M155.704,37.139c0,0.82,0.307,1.537,0.922,2.152
		c0.614,0.615,1.331,0.922,2.151,0.922h12.293c0.819,0,1.537-0.307,2.151-0.922c0.615-0.615,0.923-1.332,0.923-2.152V20.543
		L155.704,37.139z"/>
	<path fill="#44B649" d="M195.658,21.773c-0.82,0-1.537-0.308-2.151-0.923c-0.615-0.614-0.922-1.331-0.922-2.151
		c0-0.819,0.307-1.536,0.922-2.151c0.614-0.614,1.331-0.922,2.151-0.922h3.073v-9.22c0-0.819,0.308-1.537,0.922-2.151
		c0.614-0.615,1.332-0.922,2.151-0.922s1.537,0.307,2.151,0.922c0.615,0.614,0.922,1.332,0.922,2.151v9.22h9.221
		c0.819,0,1.536,0.308,2.151,0.922c0.614,0.615,0.922,1.332,0.922,2.151c0,0.82-0.308,1.537-0.922,2.151
		c-0.615,0.615-1.332,0.923-2.151,0.923h-9.221v15.366c0,0.82,0.308,1.537,0.922,2.152c0.615,0.615,1.332,0.922,2.151,0.922h6.147
		c0.819,0,1.536,0.307,2.151,0.922c0.614,0.615,0.922,1.332,0.922,2.152c0,0.818-0.308,1.535-0.922,2.15
		c-0.615,0.615-1.332,0.922-2.151,0.922h-6.147c-2.458,0-4.609-0.922-6.454-2.766c-1.844-1.844-2.766-3.996-2.766-6.455V21.773
		H195.658z"/>
</g>
</svg>
